extratorrent.com      
http://extratorrent.com/torrent/2262142/

Plot:

Some guys just never seem to grow up...to be guys. 
A successful businessman meets the woman of his dreams, Amanda, only to discover she harbors a shocking little secret about her past.

Images:

[IMG]http://leetleech.org/images/43997236360868765790.jpg[/IMG]
[IMG]http://leetleech.org/images/47640030546845157486.jpg[/IMG]
[IMG]http://leetleech.org/images/73117224312308003649.jpg[/IMG]
[IMG]http://leetleech.org/images/89706582380484445954.jpg[/IMG]
[IMG]http://leetleech.org/images/65659362835056266899.jpg[/IMG]
[IMG]http://leetleech.org/images/54508112484440040585.jpg[/IMG]

Info:

General
Complete name                    : Amanda 2009 DVDRip GoGo

(ExtraTorrent)Amanda 2009 DVDRip GoGo(ExtraTorrent).avi
Format                           : AVI
Format/Info                      : Audio Video Interleave
File size                        : 659 MiB
Duration                         : 1h 24mn
Overall bit rate                 : 1 089 Kbps
Writing application              : VirtualDubMod 1.5.4.1 (build 

2178/release)
Writing library                  : VirtualDubMod build 2178/release

Video
ID                               : 0
Format                           : MPEG-4 Visual
Format profile                   : Advanced Simple@L5
Format settings, BVOP            : Yes
Format settings, QPel            : No
Format settings, GMC             : No warppoints
Format settings, Matrix          : Custom
Codec ID                         : XVID
Codec ID/Hint                    : XviD
Duration                         : 1h 24mn
Bit rate                         : 967 Kbps
Width                            : 720 pixels
Height                           : 384 pixels
Display aspect ratio             : 1.875
Frame rate                       : 23.976 fps
Color space                      : YUV
Chroma subsampling               : 4:2:0
Bit depth                        : 8 bits
Scan type                        : Progressive
Bits/(Pixel*Frame)               : 0.146
Stream size                      : 585 MiB (89%)
Writing library                  : XviD 1.2.1 (UTC 2008-12-04)

Audio
ID                               : 1
Format                           : MPEG Audio
Format version                   : Version 1
Format profile                   : Layer 3
Mode                             : Joint stereo
Mode extension                   : MS Stereo
Codec ID                         : 55
Codec ID/Hint                    : MP3
Duration                         : 1h 24mn
Bit rate mode                    : Variable
Bit rate                         : 110 Kbps
Nominal bit rate                 : 128 Kbps
Channel(s)                       : 2 channels
Sampling rate                    : 48.0 KHz
Stream size                      : 66.3 MiB (10%)
Alignment                        : Aligned on interleaves
Interleave, duration             : 24 ms (0.58 video frame)
Interleave, preload duration     : 168 ms
Writing library                  : LAME3.98r
Encoding settings                : -m j -V 4 -q 2 -lowpass 17 --abr 128
Language                         : Comedy | Romance 
Subtitles                        : None
Genre                            : Animation
 
http://www.imdb.com/title/tt1461387/